<svg xmlns="http://www.w3.org/2000/svg" xmlns:xlink="http://www.w3.org/1999/xlink" contentStyleType="text/css" height="454px" preserveAspectRatio="none" style="width:862px;height:454px;background:#FFFFFF;" version="1.1" viewBox="0 0 862 454" width="862px" zoomAndPan="magnify"><defs/><g><!--cluster 0afa53868148d7a23f12e6fa3e7d2c35--><g id="cluster_0afa53868148d7a23f12e6fa3e7d2c35"><path d="M150.5,135.89 L248.5,135.89 A3.75,3.75 0 0 1 251,138.39 L258,158.1869 L852.5,158.1869 A2.5,2.5 0 0 1 855,160.6869 L855,445.17 A2.5,2.5 0 0 1 852.5,447.67 L150.5,447.67 A2.5,2.5 0 0 1 148,445.17 L148,138.39 A2.5,2.5 0 0 1 150.5,135.89 " fill="none" style="stroke:#000000;stroke-width:1.5;"/><line style="stroke:#000000;stroke-width:1.5;" x1="148" x2="258" y1="158.1869" y2="158.1869"/><text fill="#000000" font-family="sans-serif" font-size="14" font-weight="bold" lengthAdjust="spacing" textLength="97" x="152" y="150.8851">restaurants/</text></g><!--cluster 72303dbc279b74f792ae543094f8fd74--><g id="cluster_72303dbc279b74f792ae543094f8fd74"><path d="M174.5,178.89 L283.5,178.89 A3.75,3.75 0 0 1 286,181.39 L293,201.1869 L311.5,201.1869 A2.5,2.5 0 0 1 314,203.6869 L314,306.28 A2.5,2.5 0 0 1 311.5,308.78 L174.5,308.78 A2.5,2.5 0 0 1 172,306.28 L172,181.39 A2.5,2.5 0 0 1 174.5,178.89 " fill="none" style="stroke:#000000;stroke-width:1.5;"/><line style="stroke:#000000;stroke-width:1.5;" x1="172" x2="293" y1="201.1869" y2="201.1869"/><text fill="#000000" font-family="sans-serif" font-size="14" font-weight="bold" lengthAdjust="spacing" textLength="108" x="176" y="193.8851">templatetags/</text></g><!--cluster ee248382316cfed163d62d830c446cb6--><g id="cluster_ee248382316cfed163d62d830c446cb6"><path d="M8.5,6 L66.5,6 A3.75,3.75 0 0 1 69,8.5 L76,28.2969 L121.5,28.2969 A2.5,2.5 0 0 1 124,30.7969 L124,306.28 A2.5,2.5 0 0 1 121.5,308.78 L8.5,308.78 A2.5,2.5 0 0 1 6,306.28 L6,8.5 A2.5,2.5 0 0 1 8.5,6 " fill="none" style="stroke:#000000;stroke-width:1.5;"/><line style="stroke:#000000;stroke-width:1.5;" x1="6" x2="76" y1="28.2969" y2="28.2969"/><text fill="#000000" font-family="sans-serif" font-size="14" font-weight="bold" lengthAdjust="spacing" textLength="57" x="10" y="20.9951">mysite/</text></g><!--entity 21470adefd3eab26d1527538501afa1a--><g id="elem_21470adefd3eab26d1527538501afa1a"><rect fill="#F1F1F1" height="78.8906" rx="2.5" ry="2.5" style="stroke:#181818;stroke-width:0.5;" width="86" x="391" y="352.78"/><rect fill="#F1F1F1" height="10" style="stroke:#181818;stroke-width:0.5;" width="15" x="457" y="357.78"/><rect fill="#F1F1F1" height="2" style="stroke:#181818;stroke-width:0.5;" width="4" x="455" y="359.78"/><rect fill="#F1F1F1" height="2" style="stroke:#181818;stroke-width:0.5;" width="4" x="455" y="363.78"/><text fill="#000000" font-family="sans-serif" font-size="14" font-weight="bold" lengthAdjust="spacing" textLength="46" x="406" y="385.7751">forms</text><text fill="#000000" font-family="sans-serif" font-size="14" lengthAdjust="spacing" textLength="4" x="406" y="402.072">&#160;</text><text fill="#000000" font-family="sans-serif" font-size="14" lengthAdjust="spacing" textLength="4" x="406" y="418.3689">&#160;</text></g><!--entity 272beb2394a232df9c6d87de80360ab6--><g id="elem_272beb2394a232df9c6d87de80360ab6"><rect fill="#F1F1F1" height="78.8906" rx="2.5" ry="2.5" style="stroke:#181818;stroke-width:0.5;" width="150" x="332" y="213.89"/><rect fill="#F1F1F1" height="10" style="stroke:#181818;stroke-width:0.5;" width="15" x="462" y="218.89"/><rect fill="#F1F1F1" height="2" style="stroke:#181818;stroke-width:0.5;" width="4" x="460" y="220.89"/><rect fill="#F1F1F1" height="2" style="stroke:#181818;stroke-width:0.5;" width="4" x="460" y="224.89"/><text fill="#000000" font-family="sans-serif" font-size="14" font-weight="bold" lengthAdjust="spacing" textLength="110" x="347" y="246.8851">views_backup</text><text fill="#000000" font-family="sans-serif" font-size="14" lengthAdjust="spacing" textLength="4" x="347" y="263.182">&#160;</text><text fill="#000000" font-family="sans-serif" font-size="14" lengthAdjust="spacing" textLength="4" x="347" y="279.4789">&#160;</text></g><!--entity 4800b2134944fc758d8acdb9aeda80ad--><g id="elem_4800b2134944fc758d8acdb9aeda80ad"><rect fill="#F1F1F1" height="78.8906" rx="2.5" ry="2.5" style="stroke:#181818;stroke-width:0.5;" width="136" x="512" y="352.78"/><rect fill="#F1F1F1" height="10" style="stroke:#181818;stroke-width:0.5;" width="15" x="628" y="357.78"/><rect fill="#F1F1F1" height="2" style="stroke:#181818;stroke-width:0.5;" width="4" x="626" y="359.78"/><rect fill="#F1F1F1" height="2" style="stroke:#181818;stroke-width:0.5;" width="4" x="626" y="363.78"/><text fill="#000000" font-family="sans-serif" font-size="14" font-weight="bold" lengthAdjust="spacing" textLength="96" x="527" y="385.7751">permissions</text><text fill="#000000" font-family="sans-serif" font-size="14" lengthAdjust="spacing" textLength="4" x="527" y="402.072">&#160;</text><text fill="#000000" font-family="sans-serif" font-size="14" lengthAdjust="spacing" textLength="4" x="527" y="418.3689">&#160;</text></g><!--entity 2d0715dd5b156aa75b306eb144313cd8--><g id="elem_2d0715dd5b156aa75b306eb144313cd8"><rect fill="#F1F1F1" height="78.8906" rx="2.5" ry="2.5" style="stroke:#181818;stroke-width:0.5;" width="86" x="517" y="213.89"/><rect fill="#F1F1F1" height="10" style="stroke:#181818;stroke-width:0.5;" width="15" x="583" y="218.89"/><rect fill="#F1F1F1" height="2" style="stroke:#181818;stroke-width:0.5;" width="4" x="581" y="220.89"/><rect fill="#F1F1F1" height="2" style="stroke:#181818;stroke-width:0.5;" width="4" x="581" y="224.89"/><text fill="#000000" font-family="sans-serif" font-size="14" font-weight="bold" lengthAdjust="spacing" textLength="46" x="532" y="246.8851">views</text><text fill="#000000" font-family="sans-serif" font-size="14" lengthAdjust="spacing" textLength="4" x="532" y="263.182">&#160;</text><text fill="#000000" font-family="sans-serif" font-size="14" lengthAdjust="spacing" textLength="4" x="532" y="279.4789">&#160;</text></g><!--entity 0a8daeb4837d876cc26553c6a80ecb70--><g id="elem_0a8daeb4837d876cc26553c6a80ecb70"><rect fill="#F1F1F1" height="78.8906" rx="2.5" ry="2.5" style="stroke:#181818;stroke-width:0.5;" width="80" x="638" y="213.89"/><rect fill="#F1F1F1" height="10" style="stroke:#181818;stroke-width:0.5;" width="15" x="698" y="218.89"/><rect fill="#F1F1F1" height="2" style="stroke:#181818;stroke-width:0.5;" width="4" x="696" y="220.89"/><rect fill="#F1F1F1" height="2" style="stroke:#181818;stroke-width:0.5;" width="4" x="696" y="224.89"/><text fill="#000000" font-family="sans-serif" font-size="14" font-weight="bold" lengthAdjust="spacing" textLength="40" x="653" y="246.8851">tests</text><text fill="#000000" font-family="sans-serif" font-size="14" lengthAdjust="spacing" textLength="4" x="653" y="263.182">&#160;</text><text fill="#000000" font-family="sans-serif" font-size="14" lengthAdjust="spacing" textLength="4" x="653" y="279.4789">&#160;</text></g><!--entity 602b9e90daded45dd37659c79ea2b548--><g id="elem_602b9e90daded45dd37659c79ea2b548"><rect fill="#F1F1F1" height="78.8906" rx="2.5" ry="2.5" style="stroke:#181818;stroke-width:0.5;" width="97" x="722.5" y="352.78"/><rect fill="#F1F1F1" height="10" style="stroke:#181818;stroke-width:0.5;" width="15" x="799.5" y="357.78"/><rect fill="#F1F1F1" height="2" style="stroke:#181818;stroke-width:0.5;" width="4" x="797.5" y="359.78"/><rect fill="#F1F1F1" height="2" style="stroke:#181818;stroke-width:0.5;" width="4" x="797.5" y="363.78"/><text fill="#000000" font-family="sans-serif" font-size="14" font-weight="bold" lengthAdjust="spacing" textLength="57" x="737.5" y="385.7751">models</text><text fill="#000000" font-family="sans-serif" font-size="14" lengthAdjust="spacing" textLength="4" x="737.5" y="402.072">&#160;</text><text fill="#000000" font-family="sans-serif" font-size="14" lengthAdjust="spacing" textLength="4" x="737.5" y="418.3689">&#160;</text></g><!--entity 959610ed8bd87c3cbdad52589acb3e44--><g id="elem_959610ed8bd87c3cbdad52589acb3e44"><rect fill="#F1F1F1" height="78.8906" rx="2.5" ry="2.5" style="stroke:#181818;stroke-width:0.5;" width="87" x="752.5" y="213.89"/><rect fill="#F1F1F1" height="10" style="stroke:#181818;stroke-width:0.5;" width="15" x="819.5" y="218.89"/><rect fill="#F1F1F1" height="2" style="stroke:#181818;stroke-width:0.5;" width="4" x="817.5" y="220.89"/><rect fill="#F1F1F1" height="2" style="stroke:#181818;stroke-width:0.5;" width="4" x="817.5" y="224.89"/><text fill="#000000" font-family="sans-serif" font-size="14" font-weight="bold" lengthAdjust="spacing" textLength="47" x="767.5" y="246.8851">admin</text><text fill="#000000" font-family="sans-serif" font-size="14" lengthAdjust="spacing" textLength="4" x="767.5" y="263.182">&#160;</text><text fill="#000000" font-family="sans-serif" font-size="14" lengthAdjust="spacing" textLength="4" x="767.5" y="279.4789">&#160;</text></g><!--entity d2ad55c34c8947cc7bd0f6edceab5a41--><g id="elem_d2ad55c34c8947cc7bd0f6edceab5a41"><rect fill="#F1F1F1" height="78.8906" rx="2.5" ry="2.5" style="stroke:#181818;stroke-width:0.5;" width="109" x="188.5" y="213.89"/><rect fill="#F1F1F1" height="10" style="stroke:#181818;stroke-width:0.5;" width="15" x="277.5" y="218.89"/><rect fill="#F1F1F1" height="2" style="stroke:#181818;stroke-width:0.5;" width="4" x="275.5" y="220.89"/><rect fill="#F1F1F1" height="2" style="stroke:#181818;stroke-width:0.5;" width="4" x="275.5" y="224.89"/><text fill="#000000" font-family="sans-serif" font-size="14" font-weight="bold" lengthAdjust="spacing" textLength="69" x="203.5" y="246.8851">myfilters</text><text fill="#000000" font-family="sans-serif" font-size="14" lengthAdjust="spacing" textLength="4" x="203.5" y="263.182">&#160;</text><text fill="#000000" font-family="sans-serif" font-size="14" lengthAdjust="spacing" textLength="4" x="203.5" y="279.4789">&#160;</text></g><!--entity 98b1c4bc8de920291aa8a908536439e4--><g id="elem_98b1c4bc8de920291aa8a908536439e4"><rect fill="#F1F1F1" height="78.8906" rx="2.5" ry="2.5" style="stroke:#181818;stroke-width:0.5;" width="70" x="34" y="41"/><rect fill="#F1F1F1" height="10" style="stroke:#181818;stroke-width:0.5;" width="15" x="84" y="46"/><rect fill="#F1F1F1" height="2" style="stroke:#181818;stroke-width:0.5;" width="4" x="82" y="48"/><rect fill="#F1F1F1" height="2" style="stroke:#181818;stroke-width:0.5;" width="4" x="82" y="52"/><text fill="#000000" font-family="sans-serif" font-size="14" font-weight="bold" lengthAdjust="spacing" textLength="30" x="49" y="73.9951">urls</text><text fill="#000000" font-family="sans-serif" font-size="14" lengthAdjust="spacing" textLength="4" x="49" y="90.292">&#160;</text><text fill="#000000" font-family="sans-serif" font-size="14" lengthAdjust="spacing" textLength="4" x="49" y="106.5889">&#160;</text></g><!--entity f8ee5a7fdf763e24fc068e5140e8524d--><g id="elem_f8ee5a7fdf763e24fc068e5140e8524d"><rect fill="#F1F1F1" height="78.8906" rx="2.5" ry="2.5" style="stroke:#181818;stroke-width:0.5;" width="86" x="22" y="213.89"/><rect fill="#F1F1F1" height="10" style="stroke:#181818;stroke-width:0.5;" width="15" x="88" y="218.89"/><rect fill="#F1F1F1" height="2" style="stroke:#181818;stroke-width:0.5;" width="4" x="86" y="220.89"/><rect fill="#F1F1F1" height="2" style="stroke:#181818;stroke-width:0.5;" width="4" x="86" y="224.89"/><text fill="#000000" font-family="sans-serif" font-size="14" font-weight="bold" lengthAdjust="spacing" textLength="46" x="37" y="246.8851">views</text><text fill="#000000" font-family="sans-serif" font-size="14" lengthAdjust="spacing" textLength="4" x="37" y="263.182">&#160;</text><text fill="#000000" font-family="sans-serif" font-size="14" lengthAdjust="spacing" textLength="4" x="37" y="279.4789">&#160;</text></g><!--link 2d0715dd5b156aa75b306eb144313cd8 to 4800b2134944fc758d8acdb9aeda80ad--><g id="link_2d0715dd5b156aa75b306eb144313cd8_4800b2134944fc758d8acdb9aeda80ad"><path codeLine="58" d="M565.68,293.2 C568.4,311.85 570.7923,328.1931 573.5123,346.8031 " fill="none" id="2d0715dd5b156aa75b306eb144313cd8-to-4800b2134944fc758d8acdb9aeda80ad" style="stroke:#181818;stroke-width:1.0;"/><polygon fill="#181818" points="574.38,352.74,577.0364,343.2561,573.6569,347.7926,569.1205,344.4131,574.38,352.74" style="stroke:#181818;stroke-width:1.0;"/></g><!--link 2d0715dd5b156aa75b306eb144313cd8 to 602b9e90daded45dd37659c79ea2b548--><g id="link_2d0715dd5b156aa75b306eb144313cd8_602b9e90daded45dd37659c79ea2b548"><path codeLine="59" d="M593.92,293.16 C602.28,301.53 611.56,309.91 621,316.78 C652.27,339.52 686.023,356.3482 716.543,369.5482 " fill="none" id="2d0715dd5b156aa75b306eb144313cd8-to-602b9e90daded45dd37659c79ea2b548" style="stroke:#181818;stroke-width:1.0;"/><polygon fill="#181818" points="722.05,371.93,715.3774,364.686,717.4608,369.9452,712.2016,372.0286,722.05,371.93" style="stroke:#181818;stroke-width:1.0;"/></g><!--link 2d0715dd5b156aa75b306eb144313cd8 to 21470adefd3eab26d1527538501afa1a--><g id="link_2d0715dd5b156aa75b306eb144313cd8_21470adefd3eab26d1527538501afa1a"><path codeLine="60" d="M524.23,293.2 C507.06,311.85 490.6135,329.7155 473.4835,348.3255 " fill="none" id="2d0715dd5b156aa75b306eb144313cd8-to-21470adefd3eab26d1527538501afa1a" style="stroke:#181818;stroke-width:1.0;"/><polygon fill="#181818" points="469.42,352.74,478.4582,348.8272,472.8062,349.0612,472.5722,343.4092,469.42,352.74" style="stroke:#181818;stroke-width:1.0;"/></g><!--link 959610ed8bd87c3cbdad52589acb3e44 to 602b9e90daded45dd37659c79ea2b548--><g id="link_959610ed8bd87c3cbdad52589acb3e44_602b9e90daded45dd37659c79ea2b548"><path codeLine="61" d="M788.9,293.2 C785.5,311.85 782.5083,328.2277 779.1083,346.8377 " fill="none" id="959610ed8bd87c3cbdad52589acb3e44-to-602b9e90daded45dd37659c79ea2b548" style="stroke:#181818;stroke-width:1.0;"/><polygon fill="#181818" points="778.03,352.74,783.5824,344.6054,778.9286,347.8214,775.7126,343.1677,778.03,352.74" style="stroke:#181818;stroke-width:1.0;"/></g><!--link 98b1c4bc8de920291aa8a908536439e4 to f8ee5a7fdf763e24fc068e5140e8524d--><g id="link_98b1c4bc8de920291aa8a908536439e4_f8ee5a7fdf763e24fc068e5140e8524d"><path codeLine="62" d="M68.09,120.22 C67.44,148.09 66.6997,179.5116 66.0497,207.4116 " fill="none" id="98b1c4bc8de920291aa8a908536439e4-to-f8ee5a7fdf763e24fc068e5140e8524d" style="stroke:#181818;stroke-width:1.0;"/><polygon fill="#181818" points="65.91,213.41,70.1185,204.5056,66.0265,208.4114,62.1207,204.3193,65.91,213.41" style="stroke:#181818;stroke-width:1.0;"/></g><!--link 98b1c4bc8de920291aa8a908536439e4 to 2d0715dd5b156aa75b306eb144313cd8--><g id="link_98b1c4bc8de920291aa8a908536439e4_2d0715dd5b156aa75b306eb144313cd8"><path codeLine="63" d="M104.22,80.99 C195.24,80.47 435.59,83.45 499,127.89 C527.47,147.84 541.5573,179.1608 549.8873,207.6708 " fill="none" id="98b1c4bc8de920291aa8a908536439e4-to-2d0715dd5b156aa75b306eb144313cd8" style="stroke:#181818;stroke-width:1.0;"/><polygon fill="#181818" points="551.57,213.43,552.8854,203.6694,550.1677,208.6307,545.2065,205.913,551.57,213.43" style="stroke:#181818;stroke-width:1.0;"/></g><!--SRC=[ZPDHQnin48JVxrUOF1f29UrAMhtaZvHILhkhSDHd6z-bQIZvxnLscgOuSEQUP-RJp1xlTeVdQVmrxX-78yiFVhJDtSdcXPzEl5_cBtSRdZUE6qUWH1v9CmTeFbXg39Or2CJDxq4Eq_6mj_so2HwpOxMcO5n3KXz3xkheVBVnlFawRBVjS9hcxNOOXcyVfJbKgm4AzeoWhKXIocha83ckwIpzEThp_BrssAVZbGEISpLum8BO94TIOj5Qs9IfKvqTZdQQndaU3_jF4DHb7rLZzJ4nvrZ19QiU4Jo8qZ-4AwbZKhQA1BbJ9v6GOWH9FTYaPdUMBhtRQsboeHOhJdjlYZqUSef5SZ4EDU8bTJgexQwr9PRadIdLdYeWjPl44AcmL334ivPr6lTlqlUT5vkEErviuSUteNC01rebv58pjbm2MqHm1HirpVZVq1fwK1H0eO9P95TrBPbAdpqo-WlqInjtYvt-Sh_sxnrWUfd7nIxHPg4tHm5yacRg4sWAIk04CKdV_cDqeUe5gv1Q2IuKpqnS74L82CKkRtuwVT9M8xF8kMdB2Nfa4vV8eaTd50FgrRwlm-f9tElzm-hbtMYpTWatsgpzXCFgrTn6iph4sMQjz1jjrfx-1m00]--></g></svg>